<?xml version="1.0" encoding="utf-8"?>
<!-- Generator: Adobe Illustrator 20.1.0, SVG Export Plug-In . SVG Version: 6.00 Build 0)  -->
<svg version="1.1" id="Layer_1" xmlns="http://www.w3.org/2000/svg" xmlns:xlink="http://www.w3.org/1999/xlink" x="0px" y="0px"
	 viewBox="0 0 374.3 307.9" style="enable-background:new 0 0 374.3 307.9;" xml:space="preserve">
<style type="text/css">
	.st0{fill:#CCCCCC;}
	.st1{fill:#414042;}
	.st2{fill:#58595B;}
	.st3{fill:none;stroke:#A7A9AC;stroke-miterlimit:10;}
	.st4{fill:#6D6E71;}
</style>
<rect x="40.3" y="65.3" class="st0" width="286.9" height="207.9"/>
<rect x="192.3" y="50.7" class="st1" width="151.4" height="137.1"/>
<path d="M182,288.1c-39.9,0-79.7,0-119.6,0c-5.4,0-10.8,0.1-16.1-2.3c-9.7-4.5-14.6-12.5-17.7-22.3c-2.4-7.7-1.4-15.4-1.4-23.2
	C27,188.2,27,136.1,27,84c0-12.8,9-26.5,20.9-31.4c1.9-0.8,4.2-0.7,6.3-0.9c4.1-0.4,5.1-1.6,5-5.7c-0.1-2.7-0.2-5.5,0.1-8.2
	c0.2-3.2,1.9-5,5.4-4.9c2.5,0.1,5,0.1,7.5,0c3-0.1,4.4,1.3,4.3,4.3c-0.1,3.2,0.2,6.5-0.1,9.7c-0.3,3.7,1.9,4.5,4.8,4.7
	c3.5,0.2,5.4-1.3,5.5-4.5c0.1-5.2,0.2-10.5-0.2-15.7C85.9,24,90.2,19,97.5,19c7.2,0,14.5,0,21.7,0c6,0,12.4,3,11.8,11.7
	c-0.4,5.1-0.3,10.2-0.4,15.3c-0.1,4.4,1.1,5.5,5.9,5.5c3.2,0,4.4-1.5,4.4-5.5c0-2.7,0-5.5,0-8.2c0-4.4,0.5-4.9,5-4.9
	c23.9,0,47.7,0,71.6,0c19.2,0,38.5,0,57.7,0c5,0,5.7,0.7,5.7,5.6c0,8.4,0,8.3,8.3,8.3c13.1,0,26.2,0.1,39.4,0
	c6.8,0,13.4,1.4,18.6,5.7c6.5,5.3,10.3,12.3,10.3,21.1c-0.1,29.9,0.1,59.7-0.1,89.6c0,5.6-0.5,11.2-1.7,16.6
	c-1.5,7.1-6.2,12.5-12.2,16.4c-2.8,1.8-3.9,3.8-3.9,7c0.1,16.2-0.4,32.5,0.2,48.7c0.5,16.6-11.9,31.6-26.5,35.2
	c-3.3,0.8-6.9,0.9-10.4,1C262.7,288.2,222.3,288.1,182,288.1z M181.9,266C181.9,266,181.9,266,181.9,266c40.4,0,80.7,0,121.1,0
	c9.6,0,14.9-5.6,14.7-15.1c-0.3-14.1-0.3-28.2-0.2-42.4c0-7,0.3-7-6.9-7c-34.4,0-68.7,0-103.1,0c-13.9,0-24.7-8.4-28.8-21.2
	c-1.4-4.5-1.7-9.6-1.7-14.4c-0.1-29.1-0.1-58.2,0-87.4c0-3.2-0.7-5.1-4.6-5.1c-36.9,0.1-73.7,0.1-110.6,0.1
	c-9.9,0-12.2,2.4-12.4,12.4c0,0.9,0,1.7,0,2.6c0,50,0,100,0,150c0,5.9,0,11.8,0.1,17.6c0.2,6.4,3.8,9.8,10.1,9.8
	C100.4,266,141.2,266,181.9,266z M267.4,183.7c19.1,0,38.3-0.3,57.4,0.1c11.6,0.2,16-7.9,15.9-15.9c-0.2-31-0.1-62-0.1-93
	c0-9.4-6.1-15.5-15.4-15.5c-38.5,0-77,0-115.5,0c-1.8,0-3.8,0.3-5.5,0.9c-7.3,2.9-9.9,7.1-9.9,15.4c0,30.7,0,61.5,0,92.2
	c0,10.3,5.4,15.7,15.7,15.7C229.2,183.7,248.3,183.7,267.4,183.7z"/>
<path d="M72.1,133.8c0-10,0-20,0-30c0-7.1,4.4-11.7,11.6-11.7c16.7-0.1,33.5-0.1,50.2,0c7.2,0,11,4.3,11,12.2c0,13.9,0,27.7,0,41.6
	c0,5.9,0,11.7,0,17.6c0,7.4-3.4,10.9-11.1,11c-11.4,0-22.7,0-34.1,0c-5.5,0-11,0-16.5,0c-7.5-0.1-11.2-4-11.2-11.3
	C72.1,153.3,72.1,143.5,72.1,133.8C72.1,133.8,72.1,133.8,72.1,133.8z"/>
<circle class="st2" cx="268" cy="122.3" r="33.2"/>
<path d="M309.8,122.7c0,24.4-20.8,43.1-44.1,41.9c-22.7-1.2-41.1-20.2-40.3-44c0.8-23.9,20.5-42.6,45.1-41
	C292.7,81,310.3,98.6,309.8,122.7z M297.8,122.6c0-17-13-30.8-29.6-30.8c-16.6-0.1-30.4,13.1-30.3,30.4c0.1,16.6,13.1,30.2,30.3,30
	C284.6,151.9,297.6,139,297.8,122.6z"/>
<path d="M131.2,211.9c0.9,12.4-12.3,23.4-23.2,22.9c-10-0.4-21.7-10.1-21.6-23.5c0.2-14.6,13.3-23.6,22.9-23.5
	C118.5,187.9,132.6,199,131.2,211.9z"/>
<circle class="st3" cx="268" cy="122.3" r="42.8"/>
<path class="st4" d="M128.2,164.6H89.5c-4.2,0-7.6-3.4-7.6-7.6v-47.6c0-4.2,3.4-7.6,7.6-7.6h38.7c4.2,0,7.6,3.4,7.6,7.6V157
	C135.8,161.2,132.4,164.6,128.2,164.6z"/>
</svg>
