<?xml version="1.0" encoding="utf-8"?>
<!-- Generator: Adobe Illustrator 21.0.2, SVG Export Plug-In . SVG Version: 6.00 Build 0)  -->
<svg version="1.1" xmlns="http://www.w3.org/2000/svg" xmlns:xlink="http://www.w3.org/1999/xlink" x="0px" y="0px"
	 viewBox="0 0 725.5 172.7" style="enable-background:new 0 0 725.5 172.7;" xml:space="preserve">
<style type="text/css">
	.st0{display:none;}
	.st1{display:inline;fill:#B2B1D7;}
	.st2{display:inline;fill:#FFFFFF;}
	.st3{fill:#FFFFFF;}
</style>
<g id="Layer_2" class="st0">
	<rect x="-49" y="-70.7" class="st1" width="832" height="314"/>
</g>
<g id="Layer_1" class="st0">
	<path class="st2" d="M358.6,108c0,1.3,0,2.4,0,3.6c0,7.2,0,14.4,0,21.6c0,4.4-1.8,6.2-6.2,6.4c-2.8,0.1-5.6,0.2-8.3,0.1
		c-3.9-0.2-5.5-2-5.6-5.9c-0.1-5.8,0-11.5,0-17.3c0-19.3,0-38.6,0-57.8c0-5.9,1.6-7.8,7.3-7.8c31.6,0.1,63.3,0.1,94.9,0.6
		c8.8,0.1,17.6,2.2,25.7,6.1c6.8,3.3,11,8.1,10.2,16.3c-0.3,3.4-0.1,6.8,0,10.2c0.2,6.8-2.9,11.8-8.3,15.6
		c-6.3,4.4-13.7,6.2-21.2,7.1c-6.9,0.8-14,1.2-21,1.3c-21.2,0.2-42.5,0.1-63.7,0.1C361.2,108,360.1,108,358.6,108z M358.7,94.4
		c0.7,0.1,1.1,0.3,1.5,0.3c26-0.1,51.9,0,77.9-0.3c4.2-0.1,8.5-1.5,12.5-2.9c3.8-1.3,5.8-4.3,5.6-8.6c-0.1-2.7,0-5.4,0-8
		c0-5.7-1.1-7.5-6.5-8.7c-4.7-1-9.5-1.9-14.3-1.9c-24.7-0.2-49.5-0.1-74.2-0.1c-0.8,0-1.5,0.2-2.4,0.3
		C358.7,74.5,358.7,84.3,358.7,94.4z"/>
	<path class="st2" d="M627.5,69.8c8.8,0.5,20.1,0.7,31.3,2c5.1,0.6,10.3,2.8,15,5.2c5.9,3.1,8.7,8.6,8.6,15.3c0,8.3-0.1,16.7,0,25
		c0.2,7.3-3.2,12.4-9.3,15.9c-6.6,3.7-13.7,6-21.2,6.1c-18.4,0.4-36.9,0.6-55.3-0.1c-7.3-0.3-14.7-2.9-21.7-5.5
		c-7.8-2.9-11.9-9-11.4-17.9c0.4-7.4,0.2-14.8,0-22.3c-0.2-6.5,2.6-11.3,7.9-14.8c6.9-4.7,14.7-7.1,22.9-7.8
		C604.5,70.3,614.7,70.3,627.5,69.8z M623,127.7c0-0.2,0-0.3,0-0.5c5.6,0,11.2,0.4,16.7-0.1c6.1-0.6,12.2-1.7,18.1-3.1
		c3.6-0.9,5.4-3.6,5.3-7.7c-0.2-7.8-0.1-15.7,0-23.5c0-3.6-1.5-6.1-4.8-7.1c-3.7-1.1-7.6-2.3-11.4-2.3c-14.9-0.3-29.9-0.4-44.8,0
		c-4.9,0.1-9.8,1.9-14.6,3.4c-3.3,1-4.9,3.7-4.8,7.4c0.2,6.5,0.1,13,0.1,19.5c0,8,1.5,9.8,9.4,11.7c1,0.2,2,0.5,3,0.6
		C604.5,126.6,613.8,127.1,623,127.7z"/>
	<path class="st2" d="M263.5,70.4c8.8,0.5,20.1,0.7,31.3,2c5.1,0.6,10.3,2.8,15,5.2c5.9,3.1,8.7,8.6,8.6,15.3c0,8.3-0.1,16.7,0,25
		c0.2,7.3-3.2,12.4-9.3,15.9c-6.6,3.7-13.7,6-21.2,6.1c-18.4,0.4-36.9,0.6-55.3-0.1c-7.3-0.3-14.7-2.9-21.7-5.5
		c-7.8-2.9-11.9-9-11.4-17.9c0.4-7.4,0.2-14.8,0-22.3c-0.2-6.5,2.6-11.3,7.9-14.8c6.9-4.7,14.7-7.1,22.9-7.8
		C240.5,70.9,250.8,70.9,263.5,70.4z M259,128.3c0-0.2,0-0.3,0-0.5c5.6,0,11.2,0.4,16.7-0.1c6.1-0.6,12.2-1.7,18.1-3.1
		c3.6-0.9,5.4-3.6,5.3-7.7c-0.2-7.8-0.1-15.7,0-23.5c0-3.6-1.5-6.1-4.8-7.1c-3.7-1.1-7.6-2.3-11.4-2.3c-14.9-0.3-29.9-0.4-44.8,0
		c-4.9,0.1-9.8,1.9-14.6,3.4c-3.3,1-4.9,3.7-4.8,7.4c0.2,6.5,0.1,13,0.1,19.5c0,8,1.5,9.8,9.4,11.7c1,0.2,2,0.5,3,0.6
		C240.6,127.3,249.8,127.8,259,128.3z"/>
	<path class="st2" d="M493.8,112.2c0-6.5,0.1-13,0-19.5c-0.2-7.9,3.3-13.7,10.4-16.7c5.4-2.3,11.3-4,17.1-4.7c7.5-1,15.2-0.9,22.8-1
		c3.6-0.1,5.4,1.7,6.1,4.9c0.9,4.1-0.5,6.6-4.7,7.5c-2,0.4-4.1,0.3-6.1,0.5c-6.2,0.4-12.6,0.4-18.7,1.4c-6.1,1-7.7,3.7-7.7,9.9
		c0,12.9,0,25.7,0,38.6c0,4.6-1.6,6.4-6.1,6.8c-2.5,0.2-4.9,0.2-7.4,0.1c-3.8-0.2-5.6-2.2-5.6-6
		C493.8,126.9,493.8,119.6,493.8,112.2z"/>
	<path class="st2" d="M159.3,108.3c-8.9,0-17.5,0-26,0c-1.4,0-2.9-0.1-4.3-0.4c-2.9-0.8-4.9-3.8-4.9-6.8s2.1-5.9,5-6.7
		c1.1-0.3,2.2-0.4,3.4-0.4c12.9-0.1,25.8-0.1,38.6-0.1c6.9,0,8.5,1.6,8.5,8.6c0,4.3-0.1,8.7,0,13c0.3,8-3.3,13.6-10.1,17.4
		c-7.7,4.3-16.2,6.5-24.8,6.6c-21.4,0.3-42.9,0.3-64.3,0c-8.4-0.1-16.7-1.9-24.6-5.4c-8.6-3.8-13.2-9.8-12.8-19.7
		c0.4-13.1,0.3-26.2,0-39.3c-0.1-7.6,3.2-12.8,9.6-16.3c7.5-4.2,15.8-6.2,24.2-6.8c10.8-0.7,21.6-0.7,32.4-0.8
		c4.7,0,6.8,2.2,6.8,6.5s-2.1,6.4-6.8,6.5c-9.4,0.2-18.8,0.1-28.1,0.7c-4.5,0.3-9.1,1.7-13.5,3c-3,0.9-4.3,3.3-4.3,6.7
		c0.1,13.7,0.1,27.4,0.1,41.1c0,4.5,1,6.7,5.4,7.9c5,1.4,10.3,2.6,15.4,2.6c19.3,0.2,38.5,0.2,57.8-0.2c4.5-0.1,9-2,13.3-3.4
		c2.9-0.9,4.3-3.2,4.1-6.5C159.1,113.5,159.3,111.2,159.3,108.3z"/>
</g>
<g id="Layer_3">
	<g>
		<path class="st3" d="M104.9,103.5c-6.6,0-9.8-2.7-9.8-6.8c0-5.7,3.9-7.2,9.8-7.2h38.9v37.7c0,10.9-2.7,22.5-21.5,22.5H91.2
			c-29.1,0-45.9-5.7-45.9-35.4V60.8c0-30.1,17.2-35.4,49.4-35.4h27.5c18.8,0,21.5,12.1,21.5,23.6c0,6.4-2.7,9-7,9
			c-4.1,0-7-2.5-7-8.6c0-7.8-1.8-10-8.8-10H94.8c-27.3,0-35.4,2.1-35.4,21.9v52.3c0,19.9,8,21.9,31.8,21.9h29.7c7,0,8.8-2,8.8-9.4
			v-22.7H104.9z"/>
		<path class="st3" d="M218.8,149.6c-32.6,0-49.4-5.9-49.4-34.8V94.3c0-28.9,16.8-34.8,49.4-34.8h5.7c32.4,0,49.2,5.9,49.2,34.8
			v20.5c0,28.9-16.8,34.8-49.2,34.8H218.8z M224.4,135.6c27.3,0,35.2-1.8,35.2-21.3V94.9c0-19.5-7.8-21.3-35.2-21.3h-5.7
			c-27.9,0-35.4,2-35.4,21.3v19.3c0,19.3,7.4,21.3,35.4,21.3H224.4z"/>
		<path class="st3" d="M348.9,149.6c-32.6,0-49.4-5.9-49.4-35.9V61.3c0-30.1,17-35.9,45.9-35.9h31.1c18.8,0,21.5,12.1,21.5,23.8
			c0,7.6-4.3,8.8-7,8.8s-7-1.6-7-8.4c0-7.8-1.8-10.2-8.8-10.2h-29.7c-23.6,0-31.8,2-31.8,22.3v51.6c0,20.3,7.8,22.3,35.4,22.3H375
			c7,0,8.8-2.3,8.8-10.2c0-6.8,4.3-8.4,7-8.4c4.3,0,7,2.5,7,9c0,11.5-2.7,23.6-21.5,23.6H348.9z"/>
		<path class="st3" d="M496.9,90v-8.2c0-6.4-1.8-8.2-8.8-8.2h-27.5c-20.9,0-25.8,2-25.8,7.6c0,4.9-1.4,8.8-7.2,8.8
			c-2.7,0-6.8-1.4-6.8-8.8c0-17.4,15.6-21.7,38.5-21.7h30.3c17.2,0,21.5,8,21.5,25.4v57.8c0,7.2-4.5,8.2-7,8.2c-2.7,0-7-1.2-7-8.8
			v-2.3c-8.2,6.8-21.1,9.8-35.2,9.8h-18.2c-13.1,0-22.9-9.6-22.9-25.2c0-28.1,17.4-34.4,49.4-34.4H496.9z M470.1,104.1
			c-27.9,0-35.4,2-35.4,21.3c0,5.7,5.1,10.2,8.8,10.2h18.2c32.2,0,35.2-18.6,35.2-31.4H470.1z"/>
		<path class="st3" d="M553.3,104.9v37.9c0,5.1-2.1,8.2-7,8.2c-2.5,0-7-1-7-8.2V66.6c0-7.2,3.9-8.4,6.6-8.4c4.3,0,7.4,2.7,7.4,9v1.6
			c6.4-6.4,12.9-9.2,24.2-9.2c15,0,28.5,2.1,35.2,13.9c7-8.8,17.4-13.9,29.7-13.9c23.4,0,38.5,5.9,38.5,34.8v48.4
			c0,7.2-4.5,8.2-7,8.2s-7-1-7-8.2V94.9c0-19.7-5.9-21.3-24.4-21.3c-15.6,0-25.2,10.7-25.2,31.3v37.9c0,4.5-1.4,8.2-7,8.2
			c-4.5,0-7.4-2.1-7.4-8.2V94.9c0-19.5-6.2-21.3-25.2-21.3C562.1,73.6,553.3,84.2,553.3,104.9z"/>
	</g>
</g>
</svg>
